<?xml version="1.0" encoding="UTF-8" standalone="no"?>
<!DOCTYPE svg PUBLIC "-//W3C//DTD SVG 20010904//EN"
              "http://www.w3.org/TR/2001/REC-SVG-20010904/DTD/svg10.dtd">

<svg xmlns="http://www.w3.org/2000/svg"
     width="9.66667in" height="11.0417in"
     viewBox="0 0 696 795">
  <path id="Seleção"
        fill="none" stroke="black" stroke-width="1"
        d="M 355.00,94.00
           C 343.60,111.96 318.97,130.97 297.00,131.00
             297.00,131.00 275.00,131.00 275.00,131.00
             275.00,131.00 260.00,132.00 260.00,132.00
             260.00,132.00 243.00,132.00 243.00,132.00
             243.00,132.00 222.00,133.00 222.00,133.00
             222.00,133.00 191.00,135.00 191.00,135.00
             191.00,135.00 170.00,135.00 170.00,135.00
             152.93,134.80 137.57,126.48 127.24,113.00
             124.25,109.11 121.51,104.88 120.52,100.00
             118.78,91.42 126.06,86.14 133.00,83.04
             145.40,77.51 151.24,78.25 164.00,76.83
             164.00,76.83 179.00,74.42 179.00,74.42
             179.00,74.42 228.00,65.58 228.00,65.58
             234.80,64.07 249.76,59.74 256.00,60.18
             269.52,61.15 287.08,66.36 300.00,70.67
             318.90,76.97 337.64,84.12 355.00,94.00 Z
           M 78.00,195.00
           C 76.02,184.12 75.98,185.09 76.00,174.00
             76.01,167.83 76.62,161.37 79.99,156.00
             88.20,142.92 115.07,142.84 129.00,143.00
             129.00,143.00 150.00,144.83 150.00,144.83
             150.00,144.83 170.00,146.09 170.00,146.09
             170.00,146.09 181.00,146.98 181.00,146.98
             181.00,146.98 218.00,143.04 218.00,143.04
             227.93,142.61 241.37,145.37 251.00,148.01
             257.74,149.86 265.39,152.25 270.96,156.61
             284.04,166.83 274.27,184.29 263.00,191.26
             259.55,193.40 255.89,192.99 252.00,193.00
             252.00,193.00 240.00,193.96 240.00,193.96
             240.00,193.96 228.00,193.96 228.00,193.96
             228.00,193.96 212.00,195.00 212.00,195.00
             212.00,195.00 191.00,195.00 191.00,195.00
             191.00,195.00 176.00,196.00 176.00,196.00
             176.00,196.00 118.00,196.00 118.00,196.00
             118.00,196.00 104.00,195.00 104.00,195.00
             104.00,195.00 78.00,195.00 78.00,195.00 Z
           M 261.00,201.56
           C 264.74,200.97 271.47,200.55 275.00,201.56
             278.14,202.72 283.41,206.34 286.00,208.47
             301.64,221.34 304.79,241.13 291.67,257.00
             282.37,268.27 267.55,274.83 253.00,275.00
             253.00,275.00 236.00,275.00 236.00,275.00
             236.00,275.00 221.00,276.00 221.00,276.00
             221.00,276.00 186.00,277.00 186.00,277.00
             186.00,277.00 169.00,278.04 169.00,278.04
             169.00,278.04 155.00,278.04 155.00,278.04
             155.00,278.04 143.00,279.00 143.00,279.00
             143.00,279.00 81.00,281.00 81.00,281.00
             81.00,281.00 61.00,282.00 61.00,282.00
             59.09,282.00 55.90,282.12 54.18,281.40
             49.52,279.44 46.45,269.60 45.02,265.00
             39.51,247.18 44.08,226.93 58.01,214.17
             61.59,210.90 69.32,205.32 74.00,204.05
             76.34,203.54 82.15,204.00 85.00,204.05
             85.00,204.05 106.00,204.05 106.00,204.05
             106.00,204.05 121.00,205.00 121.00,205.00
             121.00,205.00 177.00,205.00 177.00,205.00
             177.00,205.00 190.00,204.00 190.00,204.00
             190.00,204.00 211.00,204.00 211.00,204.00
             211.00,204.00 223.00,203.04 223.00,203.04
             223.00,203.04 236.00,203.04 236.00,203.04
             236.00,203.04 261.00,201.56 261.00,201.56 Z
           M 229.00,284.21
           C 229.00,284.21 242.00,284.21 242.00,284.21
             255.87,284.19 269.85,300.18 268.90,314.00
             268.32,322.53 263.18,330.25 257.00,335.83
             248.52,343.48 235.46,348.73 224.00,348.99
             224.00,348.99 202.00,347.00 202.00,347.00
             202.00,347.00 191.00,347.00 191.00,347.00
             191.00,347.00 176.00,348.00 176.00,348.00
             176.00,348.00 105.00,350.00 105.00,350.00
             105.00,350.00 93.00,351.01 93.00,351.01
             93.00,351.01 76.00,351.01 76.00,351.01
             72.72,351.01 65.37,351.92 63.00,351.01
             50.99,347.08 41.25,328.33 42.18,316.00
             42.68,309.41 47.08,295.29 53.09,292.02
             55.16,290.90 57.71,291.02 60.00,291.00
             60.00,291.00 80.00,289.96 80.00,289.96
             80.00,289.96 95.00,289.96 95.00,289.96
             95.00,289.96 107.00,288.96 107.00,288.96
             107.00,288.96 121.00,288.96 121.00,288.96
             121.00,288.96 133.00,288.00 133.00,288.00
             133.00,288.00 195.00,286.00 195.00,286.00
             195.00,286.00 209.00,285.00 209.00,285.00
             209.00,285.00 229.00,284.21 229.00,284.21 Z
           M 185.00,356.21
           C 185.00,356.21 198.00,356.21 198.00,356.21
             210.55,356.00 220.68,357.11 229.82,367.04
             232.43,369.87 234.61,373.46 236.12,377.00
             245.44,398.86 226.03,415.97 205.00,416.00
             205.00,416.00 113.00,416.00 113.00,416.00
             113.00,416.00 100.00,417.00 100.00,417.00
             100.00,417.00 75.00,417.00 75.00,417.00
             71.97,417.00 68.91,417.12 66.00,416.15
             49.22,410.56 39.50,384.65 55.30,367.04
             64.03,357.31 78.15,360.13 90.00,360.00
             90.00,360.00 105.00,359.00 105.00,359.00
             105.00,359.00 146.00,358.00 146.00,358.00
             146.00,358.00 163.00,357.00 163.00,357.00
             170.00,356.99 178.19,357.39 185.00,356.21 Z
           M 566.00,357.00
           C 572.08,358.49 577.23,362.69 582.00,366.62
             602.00,383.09 608.29,408.21 608.00,433.00
             608.00,433.00 607.09,443.00 607.09,443.00
             603.25,498.81 580.15,548.59 539.00,586.91
             527.11,597.98 513.90,606.92 500.00,615.20
             496.64,617.20 487.71,622.82 484.00,622.48
             480.83,622.18 476.46,617.97 474.00,615.92
             474.00,615.92 453.00,598.41 453.00,598.41
             453.00,598.41 397.00,551.08 397.00,551.08
             390.70,545.82 370.98,530.11 367.00,525.00
             428.35,500.60 474.04,466.03 518.17,417.00
             533.15,400.35 554.17,375.72 566.00,357.00 Z" />
</svg>
