<?xml version="1.0" encoding="UTF-8" standalone="no"?>
<!DOCTYPE svg PUBLIC "-//W3C//DTD SVG 20010904//EN"
              "http://www.w3.org/TR/2001/REC-SVG-20010904/DTD/svg10.dtd">

<svg xmlns="http://www.w3.org/2000/svg"
     width="9.66667in" height="11.0417in"
     viewBox="0 0 696 795">
  <path id="Seleção"
        fill="none" stroke="black" stroke-width="1"
        d="M 187.00,64.00
           C 200.69,43.57 211.92,42.81 233.00,35.31
             233.00,35.31 268.00,21.60 268.00,21.60
             277.60,17.76 292.12,9.70 302.00,9.09
             314.07,8.35 329.06,14.84 339.00,21.24
             339.00,21.24 352.00,30.43 352.00,30.43
             358.72,33.57 371.47,33.01 379.00,33.09
             384.02,32.99 395.01,30.90 398.78,33.09
             402.31,35.30 402.83,40.30 403.41,44.00
             404.02,47.89 404.64,55.13 402.60,58.61
             401.02,61.30 395.79,63.31 393.00,64.78
             386.90,68.00 381.52,71.23 376.00,75.37
             373.04,77.59 363.97,85.92 360.99,86.08
             358.49,86.21 354.32,83.45 352.00,82.26
             352.00,82.26 334.00,74.01 334.00,74.01
             312.99,65.28 293.28,58.34 271.00,53.42
             267.49,52.65 256.27,51.03 253.00,51.21
             247.13,51.52 237.99,54.25 232.00,55.58
             232.00,55.58 187.00,64.00 187.00,64.00 Z
           M 260.00,141.00
           C 260.00,141.00 274.00,140.00 274.00,140.00
             274.00,140.00 299.00,140.00 299.00,140.00
             310.47,139.94 322.40,134.04 332.00,128.09
             353.17,114.96 354.46,105.46 369.00,92.17
             376.77,85.07 386.63,77.95 395.96,73.07
             395.96,73.07 404.04,69.53 404.04,69.53
             421.20,60.47 433.01,54.32 453.00,53.59
             474.77,52.79 491.00,64.72 485.50,88.00
             480.91,107.40 464.89,132.94 451.00,147.00
             445.59,152.47 439.44,159.52 432.00,162.00
             426.29,150.15 416.84,138.99 407.49,129.79
             405.40,127.74 395.95,120.17 395.74,128.06
             395.65,131.85 404.46,138.90 407.28,142.04
             414.96,150.55 425.85,164.94 429.00,176.00
             449.44,164.25 467.76,142.96 479.94,123.00
             483.74,116.78 487.84,107.82 490.55,101.00
             491.81,97.82 493.23,91.88 495.51,89.65
             500.26,84.98 511.61,83.93 518.00,84.00
             536.28,84.21 552.02,99.29 551.82,118.00
             551.78,121.61 549.54,127.42 548.33,131.00
             538.57,160.00 521.96,189.88 503.21,214.00
             497.90,220.83 485.47,236.10 479.00,241.00
             473.73,229.67 470.83,221.77 463.65,211.00
             461.90,208.38 457.84,202.23 454.97,201.17
             451.82,200.01 448.61,202.75 450.48,207.00
             450.48,207.00 463.89,229.00 463.89,229.00
             469.45,239.83 470.92,247.38 475.00,258.00
             475.00,258.00 505.54,225.00 505.54,225.00
             526.32,199.43 550.40,158.93 559.00,127.00
             565.46,128.85 571.03,132.71 576.00,137.17
             590.18,149.89 595.90,168.37 592.54,187.00
             591.26,194.05 588.79,197.83 586.75,204.00
             581.43,220.07 576.81,231.06 568.69,246.00
             568.69,246.00 555.42,267.00 555.42,267.00
             549.68,275.04 540.85,287.36 533.00,293.00
             526.40,278.80 524.95,273.42 515.29,260.00
             513.42,257.41 510.05,251.83 506.16,253.96
             505.02,254.59 504.21,255.74 504.11,257.05
             503.91,259.58 512.17,270.88 513.99,274.00
             519.76,283.88 526.40,298.66 528.00,310.00
             536.98,303.57 549.68,289.05 556.47,280.00
             576.09,253.89 583.28,239.05 595.00,209.00
             599.93,210.57 602.97,212.82 607.00,216.01
             625.96,231.05 621.99,248.74 613.30,268.00
             613.30,268.00 598.86,296.00 598.86,296.00
             598.86,296.00 589.19,312.00 589.19,312.00
             589.19,312.00 575.01,332.00 575.01,332.00
             571.44,336.62 570.43,339.37 565.00,342.00
             562.76,337.41 557.22,328.65 553.70,325.12
             551.82,323.24 548.97,321.12 546.54,323.54
             543.66,326.40 547.14,330.58 548.89,333.00
             552.40,337.85 560.77,346.79 558.03,353.00
             555.92,357.78 539.98,377.83 535.80,383.00
             518.92,403.93 501.12,424.65 481.09,442.68
             446.60,473.70 412.39,497.76 369.00,514.80
             369.00,514.80 326.00,528.42 326.00,528.42
             300.53,535.86 273.20,544.83 250.00,557.73
             236.09,565.47 223.49,575.04 212.00,586.04
             212.00,586.04 197.17,600.49 197.17,600.49
             197.17,600.49 183.00,612.27 183.00,612.27
             180.83,613.85 177.78,616.29 175.00,616.31
             172.23,616.33 163.90,611.70 161.00,610.25
             147.63,603.56 139.74,598.28 128.09,588.89
             93.37,560.94 70.80,521.86 63.43,478.00
             60.82,462.45 60.82,450.60 61.00,435.00
             61.06,430.47 61.43,429.30 62.00,425.00
             73.59,426.53 85.32,426.02 97.00,426.00
             97.00,426.00 114.00,425.00 114.00,425.00
             114.00,425.00 204.00,425.00 204.00,425.00
             228.08,424.96 251.62,406.99 246.69,381.00
             244.50,369.46 239.18,365.75 233.00,357.00
             251.26,352.88 269.55,341.41 275.92,323.00
             277.58,318.20 278.52,313.07 277.68,308.00
             275.73,296.29 269.21,291.71 263.00,283.00
             291.30,277.29 319.67,249.15 305.02,219.00
             298.58,205.74 288.68,198.63 276.00,192.00
             276.00,192.00 283.10,181.00 283.10,181.00
             287.81,172.38 288.07,162.85 281.66,155.00
             279.79,152.71 277.41,150.51 275.00,148.79
             275.00,148.79 260.00,141.00 260.00,141.00 Z" />
</svg>
